<svg width="22" height="28" viewBox="0 0 22 28" fill="none" xmlns="http://www.w3.org/2000/svg">
<path d="M8.13648 21.6322C8.37774 21.6322 8.57332 21.4567 8.57332 21.2403C8.57332 21.0238 8.37774 20.8484 8.13648 20.8484C7.89522 20.8484 7.69965 21.0238 7.69965 21.2403C7.69965 21.4567 7.89522 21.6322 8.13648 21.6322Z" fill="black"/>
<path d="M9.34994 22.6772C9.5912 22.6772 9.78678 22.5018 9.78678 22.2853C9.78678 22.0689 9.5912 21.8934 9.34994 21.8934C9.10868 21.8934 8.9131 22.0689 8.9131 22.2853C8.9131 22.5018 9.10868 22.6772 9.34994 22.6772Z" fill="black"/>
<path d="M11.0002 23.1127C11.2414 23.1127 11.437 22.9372 11.437 22.7208C11.437 22.5044 11.2414 22.3289 11.0002 22.3289C10.7589 22.3289 10.5634 22.5044 10.5634 22.7208C10.5634 22.9372 10.7589 23.1127 11.0002 23.1127Z" fill="black"/>
<path d="M13.8639 21.6322C14.1051 21.6322 14.3007 21.4567 14.3007 21.2403C14.3007 21.0238 14.1051 20.8484 13.8639 20.8484C13.6226 20.8484 13.427 21.0238 13.427 21.2403C13.427 21.4567 13.6226 21.6322 13.8639 21.6322Z" fill="black"/>
<path d="M12.6505 22.6772C12.8918 22.6772 13.0873 22.5018 13.0873 22.2853C13.0873 22.0689 12.8918 21.8934 12.6505 21.8934C12.4092 21.8934 12.2137 22.0689 12.2137 22.2853C12.2137 22.5018 12.4092 22.6772 12.6505 22.6772Z" fill="black"/>
<path d="M0.490356 16.507L6.19692 18.3355L6.48434 17.6136L1.32349 15.96C1.32118 15.8538 1.31935 15.7174 1.31935 15.5517C1.31782 14.0583 1.47065 10.2956 2.78189 6.95671C3.43562 5.2871 4.37642 3.7297 5.70131 2.60478C7.02889 1.48008 8.72388 0.769465 11.0002 0.766074C13.2765 0.769465 14.9715 1.48008 16.2992 2.60478C18.2877 4.2897 19.4063 6.95873 20.0005 9.49821C20.5977 12.0356 20.6812 14.4312 20.6812 15.5517C20.6812 15.7171 20.6794 15.8538 20.677 15.96L15.5162 17.6136L15.8036 18.3355L21.5102 16.507L21.5227 16.2495C21.523 16.2447 21.5352 15.9916 21.5352 15.5517C21.5337 14.0114 21.3892 10.1898 20.0249 6.70263C19.3406 4.95952 18.3491 3.2933 16.8869 2.04861C15.4273 0.802496 13.4805 -0.00337997 11.0002 1.06578e-05C8.51985 -0.00337997 6.57304 0.802824 5.11348 2.04861C2.92137 3.91859 1.78221 6.7244 1.16414 9.34005C0.549121 11.9574 0.465302 14.3968 0.465302 15.5517C0.465302 15.9916 0.477433 16.2447 0.477859 16.2495L0.490356 16.507Z" fill="black"/>
<path d="M21.2579 22.5684C20.5651 21.6377 19.5128 21.1229 18.5238 20.7886C18.0282 20.6212 17.5432 20.4977 17.1163 20.3929C16.69 20.2888 16.3192 20.2011 16.0701 20.117C15.6344 19.9718 15.174 19.7836 14.8529 19.5812C14.6925 19.4809 14.5688 19.3775 14.4972 19.2894C14.4247 19.1992 14.405 19.137 14.4043 19.0825C14.4043 18.7066 14.4043 18.2368 14.4043 17.6181C14.9617 17.0615 15.7626 16.1991 16.0917 14.8319C16.2066 14.7857 16.3204 14.733 16.4299 14.6646C16.7026 14.4958 16.9339 14.2506 17.1299 13.9172C17.3271 13.5825 17.5019 13.1546 17.6885 12.5691C17.7829 12.2725 17.8265 12.0146 17.8265 11.785C17.8269 11.5203 17.7662 11.2907 17.6547 11.1043C17.5721 10.9644 17.464 10.8559 17.3495 10.7729C17.3779 9.39961 17.5205 7.53471 16.7386 5.95867L16.7173 5.82906C16.6393 5.35415 16.4147 4.91156 16.0856 4.52208C15.5908 3.93763 14.8642 3.46715 13.9955 3.13854C13.1263 2.81025 12.1116 2.62415 11.0279 2.62415C9.58232 2.62486 8.2601 2.95413 7.24153 3.51342C6.7327 3.79369 6.29885 4.13254 5.9693 4.52208C5.64018 4.91156 5.41566 5.35415 5.33757 5.82906L5.26978 6.23932C4.33052 8.13414 4.4386 10.2399 4.50529 10.9066C4.44768 10.9662 4.39081 11.0281 4.34563 11.1043C4.2342 11.2907 4.17312 11.5203 4.17349 11.785C4.17385 12.0146 4.2175 12.2725 4.31192 12.5691C4.56143 13.3488 4.78668 13.8523 5.07825 14.2217C5.22388 14.4051 5.39 14.5523 5.57044 14.6646C5.68004 14.733 5.79379 14.7857 5.90864 14.8319C6.23782 16.1991 7.03871 17.0615 7.59607 17.6181C7.59607 18.2368 7.59607 18.7067 7.59607 19.0825C7.59607 19.1288 7.57559 19.1955 7.49561 19.2907C7.37844 19.4322 7.1354 19.6037 6.84681 19.7489C6.55902 19.8959 6.22795 20.0231 5.93827 20.1146C5.59811 20.2228 5.05021 20.3354 4.43622 20.4932C3.51366 20.7327 2.42309 21.0773 1.53576 21.76C1.09289 22.1012 0.70378 22.5299 0.430376 23.0626C0.156606 23.595 -0.000365121 24.2277 6.37768e-07 24.968C6.37768e-07 25.1398 0.00835191 25.3173 0.0257864 25.5011C0.0382831 25.63 0.0929031 25.7344 0.156972 25.8205C0.279074 25.9817 0.440983 26.1011 0.643857 26.2239C0.99913 26.4348 1.49138 26.641 2.12164 26.8434C4.00774 27.4468 7.13046 27.9993 11.0002 28C14.1441 28 16.7978 27.634 18.6918 27.1741C19.6395 26.9438 20.396 26.6913 20.9428 26.4393C21.2165 26.3124 21.438 26.1868 21.6136 26.0495C21.7016 25.9801 21.7785 25.9073 21.8434 25.8205C21.9071 25.7345 21.9621 25.63 21.9746 25.5011C21.9916 25.3177 22 25.1405 22 24.9694C22.0015 23.9825 21.719 23.1872 21.2579 22.5684ZM6.65003 4.98506C7.03109 4.53296 7.63441 4.13019 8.39092 3.84477C9.14701 3.55903 10.0533 3.39026 11.0279 3.39026C12.3266 3.38961 13.5044 3.69132 14.367 4.16661C14.7982 4.40406 15.1505 4.68368 15.4046 4.98506C15.4152 4.99764 15.4235 5.01093 15.4338 5.02384C15.0466 4.8857 14.6257 4.77479 14.1741 4.68844C13.2322 4.5095 12.1624 4.43332 11.0279 4.43332C9.89297 4.43332 8.82325 4.5095 7.88093 4.68844C7.42928 4.77484 7.00805 4.88575 6.6209 5.02422C6.63108 5.01126 6.63943 4.99797 6.65003 4.98506ZM17.1781 26.7077C15.5069 27.0142 13.4009 27.2339 11.0002 27.2339C8.13648 27.2339 5.7001 26.9196 3.91453 26.5206C4.08131 26.1621 4.3741 25.6977 4.79424 25.2905C5.35312 24.7482 6.11725 24.3019 7.13655 24.2444C7.20635 24.2403 7.27609 24.2383 7.34589 24.2383C8.2495 24.237 9.11787 24.5642 9.75605 24.9003C10.0754 25.0677 10.3366 25.2357 10.5163 25.3609C10.6063 25.4235 10.6756 25.4755 10.7219 25.511L10.7738 25.5518L10.786 25.5616L10.789 25.5636L11.0002 25.7398L11.2114 25.5636L11.2145 25.5616C11.2531 25.5296 11.6721 25.1925 12.3042 24.8686C12.9363 24.5438 13.7785 24.2372 14.6545 24.2383C14.7238 24.2383 14.7936 24.2403 14.8638 24.2444C15.8831 24.3019 16.6472 24.7482 17.2057 25.2905C17.6263 25.6983 17.9194 26.1633 18.0862 26.5219C17.7985 26.5862 17.4989 26.6492 17.1781 26.7077ZM21.1247 25.4027L21.088 25.4419C21.0251 25.499 20.898 25.5851 20.7194 25.6763C20.2993 25.894 19.6004 26.1444 18.6899 26.3778C18.5018 25.9491 18.1701 25.4089 17.6627 24.9129C17.0314 24.2959 16.1129 23.755 14.9026 23.6879C14.8195 23.6835 14.7365 23.6812 14.6545 23.6812C13.5844 23.6825 12.6255 24.0553 11.93 24.419C11.5144 24.6374 11.1948 24.8531 11.0002 24.9943C10.8057 24.8531 10.4857 24.6374 10.0701 24.419C9.37463 24.0553 8.41561 23.6825 7.34589 23.6812C7.26396 23.6812 7.18093 23.6836 7.09748 23.6879C5.88743 23.755 4.96864 24.2959 4.33728 24.9129C3.82955 25.4096 3.49775 25.9498 3.30963 26.3784C2.51105 26.1746 1.87628 25.9559 1.44853 25.7579C1.21602 25.6508 1.04467 25.5484 0.949875 25.4735C0.909276 25.4419 0.886538 25.4178 0.875199 25.4038C0.86191 25.2528 0.854351 25.1068 0.854351 24.9681C0.855875 24.1081 1.0902 23.4797 1.45237 22.9872C1.99424 22.251 2.86413 21.8002 3.77304 21.4934C4.22542 21.3403 4.68311 21.2241 5.1033 21.123C5.52423 21.0213 5.90492 20.9373 6.22191 20.8372C6.6618 20.6974 7.17374 20.4947 7.60564 20.2259C7.82144 20.0905 8.01895 19.9388 8.17598 19.7541C8.33106 19.5718 8.45011 19.3435 8.45011 19.0826C8.45011 18.676 8.45011 18.1682 8.45011 17.4715V17.3246L8.34051 17.215C7.75804 16.633 6.96928 15.8607 6.69594 14.4874L6.65272 14.268L6.41912 14.1932C6.27044 14.1456 6.15705 14.0969 6.05812 14.0354C5.91212 13.9428 5.77977 13.8166 5.62506 13.5581C5.47223 13.3009 5.31032 12.9165 5.13323 12.359C5.05551 12.1154 5.02777 11.9256 5.02777 11.7851C5.02814 11.6218 5.06307 11.5262 5.09873 11.4657C5.15256 11.3782 5.21858 11.3408 5.30234 11.3106C5.38079 11.2837 5.46461 11.2792 5.48089 11.2792L5.64054 11.2884L6.08421 12.5171C6.08421 12.5171 6.34322 11.5884 6.34322 10.8918C10.7442 9.6147 12.556 6.13088 12.556 6.13088C12.556 6.13088 14.3864 7.32525 15.2741 7.52426C15.7917 7.64025 15.6624 12.6335 15.6624 12.6335L16.3115 11.2894L16.5167 11.2795C16.5326 11.2775 16.682 11.2884 16.7761 11.3448C16.8249 11.3731 16.8647 11.4058 16.9012 11.4656C16.9372 11.5261 16.9717 11.6213 16.9725 11.785C16.9725 11.9258 16.9449 12.1153 16.8671 12.3589C16.6316 13.1033 16.4204 13.5359 16.2266 13.7761C16.1296 13.8975 16.0408 13.9734 15.9422 14.0353C15.8432 14.0969 15.7299 14.1455 15.5812 14.1931L15.3476 14.268L15.3044 14.4874C15.031 15.8607 14.2423 16.6329 13.6599 17.215L13.5502 17.3245V17.4714C13.5502 18.1682 13.5502 18.676 13.5502 19.0825C13.5495 19.3353 13.6591 19.5621 13.8088 19.7435C14.0363 20.017 14.3519 20.2194 14.6954 20.3963C15.0397 20.5715 15.4163 20.7157 15.7705 20.8348C16.1936 20.9756 16.7333 21.0865 17.3225 21.2409C18.2049 21.4695 19.1798 21.791 19.9056 22.35C20.2697 22.6296 20.5745 22.9654 20.7933 23.3881C21.0114 23.811 21.1456 24.3247 21.1456 24.9693C21.1456 25.1071 21.138 25.2524 21.1247 25.4027Z" fill="black"/>
</svg>
