<svg width="36" height="33" viewBox="0 0 36 33" fill="none" xmlns="http://www.w3.org/2000/svg">
<path fill-rule="evenodd" clip-rule="evenodd" d="M14.1111 32.625H21.8889C27.3508 32.625 30.0816 32.625 32.0434 31.3074C32.8925 30.7369 33.6217 30.004 34.1892 29.1504C35.5 27.1785 35.5 24.4333 35.5 18.9431C35.5 13.4531 35.5 10.7079 34.1892 8.73599C33.6217 7.88233 32.8925 7.14936 32.0434 6.57897C30.7827 5.73232 29.2047 5.4297 26.7885 5.32154C25.6354 5.32154 24.6428 4.4433 24.4167 3.30681C24.0774 1.60209 22.5883 0.375 20.859 0.375H15.141C13.4116 0.375 11.9225 1.60209 11.5833 3.30681C11.3572 4.4433 10.3645 5.32154 9.2115 5.32154C6.79533 5.4297 5.21721 5.73232 3.95667 6.57897C3.10741 7.14936 2.37824 7.88233 1.81079 8.73599C0.5 10.7079 0.5 13.4531 0.5 18.9431C0.5 24.4333 0.5 27.1785 1.81079 29.1504C2.37824 30.004 3.10741 30.7369 3.95667 31.3074C5.91842 32.625 8.64931 32.625 14.1111 32.625ZM18 11.6136C13.9729 11.6136 10.7083 14.8952 10.7083 18.9431C10.7083 22.9912 13.9729 26.2726 18 26.2726C22.0271 26.2726 25.2917 22.9912 25.2917 18.9431C25.2917 14.8952 22.0271 11.6136 18 11.6136ZM18 14.5455C15.5838 14.5455 13.625 16.5143 13.625 18.9431C13.625 21.3719 15.5838 23.3409 18 23.3409C20.4162 23.3409 22.375 21.3719 22.375 18.9431C22.375 16.5143 20.4162 14.5455 18 14.5455ZM26.2639 13.0795C26.2639 12.2699 26.9168 11.6136 27.7223 11.6136H29.6667C30.4721 11.6136 31.125 12.2699 31.125 13.0795C31.125 13.8892 30.4721 14.5455 29.6667 14.5455H27.7223C26.9168 14.5455 26.2639 13.8892 26.2639 13.0795Z" fill="#B7B7B7"/>
</svg>
