<svg width="38" height="40" viewBox="0 0 38 40" fill="none" xmlns="http://www.w3.org/2000/svg">
<path d="M20.2863 12.7668L22.709 13.4946L23.762 10.1587L21.3393 9.43086L20.2863 12.7668Z" fill="#B7B7B7"/>
<path fill-rule="evenodd" clip-rule="evenodd" d="M18.761 18.9871L19.3134 14.3548L20.7178 11.3992C21.4708 11.7649 22.2802 12.0034 23.1406 12.1272C23.6137 12.5766 23.7131 14.1808 23.1789 15.3358L21.2524 19.7357L18.761 18.9871Z" fill="#B7B7B7"/>
<path d="M21.1808 3.5572C21.1488 1.75348 19.609 0.316842 17.7415 0.348364C15.8741 0.379886 14.3861 1.86764 14.4181 3.67135C14.4501 5.47506 15.9899 6.9117 17.8574 6.88018C19.7248 6.84866 21.2128 5.36091 21.1808 3.5572Z" fill="#B7B7B7"/>
<path d="M24.3105 6.26035C24.2785 4.45652 22.7386 3.01978 20.871 3.0513C19.0035 3.08283 17.5154 4.57068 17.5474 6.3745C17.5794 8.17833 19.1193 9.61507 20.9869 9.58355C22.8545 9.55202 24.3425 8.06417 24.3105 6.26035Z" fill="#B7B7B7"/>
<path d="M26.3574 7.20723C26.3166 4.91121 24.3126 3.08318 21.8812 3.12422C19.4498 3.16526 17.5117 5.05983 17.5524 7.35586C17.5931 9.65189 19.5972 11.4799 22.0286 11.4389C24.46 11.3978 26.3981 9.50326 26.3574 7.20723Z" fill="#B7B7B7"/>
<path fill-rule="evenodd" clip-rule="evenodd" d="M20.9965 19.3348C23.4252 24.08 19.4285 30.8799 12.0155 34.8941C8.77397 33.4041 5.99532 30.871 4.26318 27.4863C2.53105 24.1019 2.12504 20.4127 2.85207 16.9898C10.5948 13.6206 18.5679 14.5898 20.9965 19.3348Z" fill="#B7B7B7"/>
<path fill-rule="evenodd" clip-rule="evenodd" d="M19.3134 14.3547C19.61 14.4493 22.3891 13.2407 23.5119 14.0872C23.4653 14.5137 23.3576 14.9498 23.1791 15.3355L21.2722 19.6907L21.2526 19.7354L18.761 18.9867L19.3134 14.3547Z" fill="#B7B7B7"/>
<path d="M3.91258 25.8001C4.07283 25.3309 3.42629 24.6981 2.46849 24.3868C1.51069 24.0754 0.604333 24.2034 0.444082 24.6726C0.283832 25.1418 0.930372 25.7746 1.88817 26.086C2.84597 26.3973 3.75232 26.2693 3.91258 25.8001Z" fill="#B7B7B7"/>
<path fill-rule="evenodd" clip-rule="evenodd" d="M25.1403 4.40947C22.5334 8.16196 20.3837 7.70228 19.5562 10.7723C18.3711 10.0451 17.5785 8.79259 17.553 7.35699C17.5122 5.06114 19.4503 3.16651 21.8816 3.12568C23.1606 3.104 24.3213 3.60003 25.1403 4.40947Z" fill="#B7B7B7"/>
<path d="M21.6253 7.87449C21.4571 7.21823 20.9717 6.77137 20.5412 6.8764C20.1107 6.98143 19.8981 7.59859 20.0663 8.25485C20.2345 8.91111 20.7199 9.35797 21.1504 9.25294C21.5809 9.1479 21.7935 8.53075 21.6253 7.87449Z" fill="#B7B7B7"/>
<path opacity="0.5" fill-rule="evenodd" clip-rule="evenodd" d="M20.0976 0.84391C15.4645 4.30001 12.4244 11.1272 11.8562 17.2014C11.8189 17.1851 11.7817 17.1687 11.7444 17.1519C8.22456 15.5649 5.54529 12.9319 3.92081 9.81574C6.5395 4.86558 13.3246 -2.50546 20.0976 0.84391Z" fill="#B7B7B7"/>
<path d="M25.4882 7.22864C25.4831 6.93898 25.3414 6.70647 25.1717 6.70932C25.002 6.71217 24.8686 6.94929 24.8737 7.23895C24.8788 7.52861 25.0205 7.76112 25.1902 7.75827C25.3599 7.75542 25.4933 7.5183 25.4882 7.22864Z" fill="#B7B7B7"/>
<path fill-rule="evenodd" clip-rule="evenodd" d="M26.0116 8.89622C25.3267 8.90068 24.6478 8.87325 24.2032 8.81372C24.5685 9.22684 25.0728 9.49176 25.6045 9.60466C25.7634 9.38269 25.8998 9.14562 26.0116 8.89622Z" fill="#B7B7B7"/>
<path fill-rule="evenodd" clip-rule="evenodd" d="M20.9843 31.1962L21.6774 26.9473L22.1734 24.2538L22.3373 23.356L25.5115 23.9173L23.7852 31.303L20.9843 31.1962Z" fill="#B7B7B7"/>
<path fill-rule="evenodd" clip-rule="evenodd" d="M22.3373 23.356L22.3815 23.3638L22.1734 24.2543V24.2538L22.3373 23.356Z" fill="#B7B7B7"/>
<path fill-rule="evenodd" clip-rule="evenodd" d="M24.5449 38.6602L20.9843 31.1965L23.7102 30.582L26.3564 37.9505C25.7527 38.1869 25.1488 38.4236 24.5449 38.6602Z" fill="#B7B7B7"/>
<path d="M26.4218 38.1057C26.2146 37.6024 25.214 37.5205 24.1869 37.9229C23.1597 38.3252 22.495 39.0594 22.7021 39.5627C22.9093 40.0661 23.9099 40.148 24.937 39.7456C25.9642 39.3433 26.6289 38.609 26.4218 38.1057Z" fill="#B7B7B7"/>
<path d="M29.4996 13.1985L31.5833 14.2178L32.1356 13.1432L30.0519 12.1239L29.4996 13.1985Z" fill="#B7B7B7"/>
<path fill-rule="evenodd" clip-rule="evenodd" d="M22.2154 22.6982L27.0448 25.0609L26.6183 26.0444L21.7288 23.6527L22.2154 22.6982Z" fill="#B7B7B7"/>
<path fill-rule="evenodd" clip-rule="evenodd" d="M26.7609 25.7175L31.93 13.5585L30.182 13.1284L24.8842 17.8415L21.8977 23.3111L26.7609 25.7175Z" fill="#B7B7B7"/>
<path fill-rule="evenodd" clip-rule="evenodd" d="M30.1421 12.4516C28.009 16.0068 27.1858 17.8202 24.8376 18.2877L25.6416 16.7112L29.1536 13.4445L30.0506 12.1233L30.1421 12.4516Z" fill="#B7B7B7"/>
<path fill-rule="evenodd" clip-rule="evenodd" d="M30.3217 11.9814L29.1169 14.3612L28.8169 14.6776L25.9155 17.6155L24.1108 19.0641L25.64 16.5675L29.1538 13.4444L29.8969 12.2837C30.01 12.1072 30.2511 11.332 30.2511 11.332L30.3217 11.9814Z" fill="#B7B7B7"/>
<path fill-rule="evenodd" clip-rule="evenodd" d="M29.3562 14.0433C26.7332 15.3313 22.626 16.5975 18.9726 16.691L19.0203 17.6678C22.436 18.0237 27.2948 17.3848 29.4297 16.6234C31.9795 15.714 32.0024 12.744 29.3562 14.0433Z" fill="#B7B7B7"/>
<path d="M36.4313 9.61062C37.083 7.17413 35.5197 4.66647 32.9397 4.00961C30.3596 3.35274 27.7397 4.79541 27.088 7.2319C26.4363 9.66839 27.9995 12.176 30.5796 12.8329C33.1597 13.4898 35.7796 12.0471 36.4313 9.61062Z" fill="#B7B7B7"/>
<path fill-rule="evenodd" clip-rule="evenodd" d="M29.1274 4.55652C29.4807 7.90823 34.9528 10.5557 33.3921 12.7455C34.8475 12.2697 36.0243 11.1347 36.4319 9.61151C37.0835 7.17534 35.5205 4.66751 32.9404 4.01073C31.5829 3.66502 30.2147 3.90081 29.1274 4.55652Z" fill="#B7B7B7"/>
<path d="M33.5152 9.93286C33.8684 9.27594 33.8053 8.56463 33.3744 8.34411C32.9434 8.12359 32.3077 8.47736 31.9546 9.13427C31.6014 9.79119 31.6645 10.5025 32.0954 10.723C32.5264 10.9435 33.162 10.5898 33.5152 9.93286Z" fill="#B7B7B7"/>
<path d="M28.6619 7.64075C28.7441 7.3334 28.6648 7.04709 28.4847 7.00125C28.3047 6.95542 28.0921 7.16741 28.0099 7.47475C27.9277 7.7821 28.007 8.06841 28.187 8.11425C28.3671 8.16009 28.5797 7.94809 28.6619 7.64075Z" fill="#B7B7B7"/>
<path fill-rule="evenodd" clip-rule="evenodd" d="M27.0102 9.11792C27.7387 9.29546 28.4695 9.43727 28.9592 9.48617C28.4605 9.83444 27.8527 9.98944 27.2562 9.97562C27.1457 9.69922 27.0629 9.41197 27.0102 9.11792Z" fill="#B7B7B7"/>
<path fill-rule="evenodd" clip-rule="evenodd" d="M19.6329 15.7565C19.2694 15.5585 19.0641 15.671 19.0199 15.9551C18.5239 15.5974 18.2408 16.3084 18.0832 16.5842C17.7768 17.1206 17.7755 17.2937 18.5228 17.7C19.2705 18.1063 20.1248 18.0009 20.4314 17.4642C20.7376 16.9274 20.3804 16.1628 19.6329 15.7565Z" fill="#B7B7B7"/>
<path fill-rule="evenodd" clip-rule="evenodd" d="M31.4268 13.3646C31.7518 13.4441 31.8091 13.6204 31.6746 13.8109C32.1676 13.8681 31.932 14.437 31.8688 14.6835C31.7454 15.1633 31.6482 15.2654 30.9803 15.1021C30.3123 14.9384 29.8706 14.4168 29.9941 13.9372C30.1173 13.4573 30.7589 13.2009 31.4268 13.3646Z" fill="#B7B7B7"/>
<path fill-rule="evenodd" clip-rule="evenodd" d="M25.8209 14.5783C26.8156 14.6455 29.7008 14.0418 30.6144 13.6934L30.7854 14.4975C29.9272 15.0509 26.4952 15.9384 25.4655 16.1259L25.8209 14.5783Z" fill="#B7B7B7"/>
<path fill-rule="evenodd" clip-rule="evenodd" d="M21.6553 13.12C22.6907 13.5293 24.7132 14.4053 26.1031 14.6851L25.4847 16.1192C24.1709 16.0477 22.5443 15.4543 21.7726 15.2466C19.6127 14.6659 19.3895 12.2249 21.6553 13.12Z" fill="#B7B7B7"/>
<path fill-rule="evenodd" clip-rule="evenodd" d="M35.2352 9.05008C32.992 5.89186 25.8732 6.01156 27.7372 1.83447C28.6593 3.60558 29.2933 3.23307 31.2738 3.7289C33.271 4.22897 35.4357 5.85933 35.2352 9.05008Z" fill="#B7B7B7"/>
<path fill-rule="evenodd" clip-rule="evenodd" d="M35.3091 9.28366C33.6358 5.80502 26.5959 4.76724 29.1466 0.951172C29.7537 2.8473 30.4422 2.58301 32.3105 3.39351C34.1946 4.21103 36.0509 6.17009 35.3091 9.28366Z" fill="#B7B7B7"/>
<path fill-rule="evenodd" clip-rule="evenodd" d="M28.1532 4.6931C29.0032 5.36051 29.7559 6.07363 30.4888 7.34296C31.2943 8.73794 35.7465 5.55761 34.098 4.43158C32.4491 3.30535 30.3256 2.3592 28.1532 4.6931Z" fill="#B7B7B7"/>
</svg>
