<svg width="48" height="49" viewBox="0 0 48 49" fill="none" xmlns="http://www.w3.org/2000/svg">
<path fill-rule="evenodd" clip-rule="evenodd" d="M22.457 16.8397C18.3281 12.9757 11.8555 14.7422 6.37891 14.1202C7.27344 11.2172 8.46875 8.05498 9.78516 4.71334C10.9492 1.75452 10.9609 1.75851 13.125 2.23304C13.5234 2.32076 13.9766 2.42045 14.4336 2.51217L21.6445 3.96367C22.0078 4.06735 22.2773 4.23084 22.4609 4.45016C22.6484 4.67347 22.7695 4.96855 22.8281 5.3394C22.793 6.41606 22.7773 7.60836 22.7617 8.8525C22.7305 11.3727 22.6953 14.1361 22.457 16.8397ZM33.4102 48.2104C32.7031 48.35 32.0195 47.8755 31.8828 47.1537C31.7461 46.4319 32.2109 45.7341 32.918 45.5945L38.4141 44.5099L36.0664 32.7942C35.2656 32.874 34.4961 32.862 33.7656 32.7583C32.1563 32.5311 30.7344 31.8731 29.4961 30.7964C26.0625 27.8177 24.7266 22.9568 24.1875 17.8845C23.6484 22.9528 22.3125 27.8137 18.8789 30.7964C17.6367 31.8731 16.2148 32.5311 14.6094 32.7583C13.8789 32.862 13.1133 32.874 12.3086 32.7942L9.80079 45.3194L15.082 46.3641C15.7891 46.5037 16.2539 47.2015 16.1172 47.9233C15.9805 48.6451 15.2969 49.1196 14.5898 48.98L1.40625 46.3761C0.699222 46.2365 0.234378 45.5387 0.371097 44.8169C0.507816 44.0952 1.19141 43.6206 1.89844 43.7602L7.23829 44.813L9.75391 32.2639C9.66016 32.236 9.56641 32.2041 9.46875 32.1722C9.45313 32.1682 9.4375 32.1642 9.42188 32.1562C4.26172 30.4415 2.60157 26.7011 2.95313 21.5691C3.28125 16.76 5.44922 10.7307 8.08985 4.01949C9.83204 -0.3988 9.84766 -0.394812 13.5039 0.406701C13.8594 0.486454 14.2656 0.574182 14.7813 0.67786L22.0078 2.13335C22.0273 2.13733 22.0469 2.14132 22.0664 2.14531C22.8203 2.34868 23.4063 2.71554 23.8438 3.23393C23.9727 3.38945 24.0859 3.55294 24.1875 3.7284C24.2852 3.55294 24.4023 3.38546 24.5313 3.23393C24.9688 2.71554 25.5586 2.34868 26.3086 2.14531C26.3281 2.14132 26.3477 2.13733 26.3672 2.13335L33.5938 0.67786C34.1094 0.574182 34.5156 0.486454 34.8711 0.406701C38.5273 -0.394812 38.543 -0.3988 40.2813 4.01949C42.9258 10.7307 45.0899 16.76 45.418 21.5691C45.7695 26.6971 44.1094 30.4415 38.9492 32.1562C38.9336 32.1602 38.918 32.1642 38.9023 32.1722C38.8086 32.2041 38.7109 32.232 38.6172 32.2639L40.9688 44.0075L46.0977 42.9946C46.8047 42.855 47.4883 43.3296 47.625 44.0513C47.7617 44.7731 47.2969 45.4709 46.5899 45.6105L33.4102 48.2104ZM29.293 23.7383C29.1875 23.4632 29.3203 23.1561 29.5898 23.0485C29.8594 22.9408 30.1602 23.0764 30.2656 23.3515C30.9336 25.0861 31.8594 26.3622 33.0078 27.2395C34.1524 28.1088 35.5313 28.5913 37.1133 28.7308C37.4024 28.7548 37.6133 29.014 37.5898 29.309C37.5664 29.6041 37.3125 29.8195 37.0234 29.7955C35.25 29.636 33.6914 29.0897 32.3828 28.0968C31.082 27.0999 30.0391 25.6683 29.293 23.7383ZM25.957 17.2784C31.8906 14.5468 38.043 11.6 41.2031 11.6997C40.4414 9.48654 39.5469 7.1458 38.5899 4.71334C37.4258 1.75452 37.4141 1.75851 35.25 2.23304C34.8516 2.32076 34.3984 2.42045 33.9414 2.51217L26.7344 3.96367C26.3711 4.06735 26.1016 4.23084 25.918 4.45016C25.7305 4.67347 25.6094 4.96855 25.5508 5.3394C25.5859 6.41606 25.6016 7.60836 25.6172 8.8525C25.6445 11.5083 25.6797 14.4352 25.957 17.2784ZM19.3633 21.3338C19.4023 21.0427 19.668 20.8393 19.9531 20.8832C20.2383 20.9231 20.4375 21.1942 20.3945 21.4853C20.1016 23.535 19.4102 25.1739 18.3594 26.4459C17.3086 27.722 15.9141 28.6192 14.2266 29.1854C13.9531 29.2771 13.6563 29.1256 13.5664 28.8465C13.4766 28.5673 13.625 28.2643 13.8984 28.1726C15.4102 27.6661 16.6445 26.8766 17.5625 25.7601C18.4883 24.6435 19.0977 23.184 19.3633 21.3338Z" fill="#B7B7B7"/>
</svg>
