<svg width="22" height="28" viewBox="0 0 22 28" fill="none" xmlns="http://www.w3.org/2000/svg">
<path d="M21.2591 22.3066C20.5662 21.331 19.5139 20.7914 18.5249 20.441C18.0292 20.2655 17.5442 20.1361 17.1172 20.0262C16.6909 19.9171 16.3201 19.8251 16.0709 19.737C15.6352 19.5848 15.1748 19.3876 14.8536 19.1754C14.6932 19.0702 14.5696 18.9618 14.4979 18.8694C14.4255 18.7749 14.4058 18.7097 14.405 18.6526C14.405 18.2586 14.405 17.7662 14.405 17.1175C14.9624 16.5342 15.7634 15.6302 16.0925 14.1971C16.2075 14.1486 16.3212 14.0933 16.4308 14.0216C16.7035 13.8448 16.9348 13.5876 17.1308 13.2382C17.328 12.8874 17.5028 12.4388 17.6894 11.8251C17.7839 11.5142 17.8275 11.2439 17.8275 11.0031C17.8279 10.7257 17.7672 10.485 17.6557 10.2896C17.6488 10.2775 17.6394 10.2686 17.6322 10.2568C19.2897 7.41836 18.5636 2.88901 15.2124 1.4884C14.4357 0.758097 10.521 -1.59042 6.28093 1.73192C2.61502 4.60456 3.67527 8.75559 4.29455 10.3966C4.2172 10.571 4.17317 10.7735 4.17358 11.0031C4.17393 11.2439 4.21755 11.5142 4.312 11.8251C4.56156 12.6424 4.78681 13.1702 5.07842 13.5574C5.22405 13.7496 5.39016 13.904 5.57068 14.0217C5.68026 14.0934 5.79402 14.1487 5.90894 14.1971C6.23812 15.6302 7.03903 16.5342 7.59649 17.1176C7.59649 17.7662 7.59649 18.2586 7.59649 18.6527C7.59649 18.7012 7.57602 18.7711 7.49599 18.8709C7.37886 19.0192 7.13575 19.199 6.84717 19.3512C6.55934 19.5053 6.22829 19.6387 5.9386 19.7346C5.59843 19.848 5.05045 19.966 4.43646 20.1315C3.51382 20.3825 2.42315 20.7438 1.53582 21.4594C1.09287 21.8171 0.703788 22.2664 0.43038 22.8248C0.156566 23.3828 -0.000406326 24.0461 7.89949e-07 24.822C7.89949e-07 25.0021 0.00837579 25.1882 0.0257655 25.3808C0.0382697 25.5159 0.0928812 25.6254 0.156973 25.7156C0.279108 25.8846 0.441024 26.0098 0.643884 26.1385C0.99918 26.3596 1.49144 26.5757 2.12171 26.7879C4.00794 27.4204 7.13087 27.9995 11.0008 28.0002C14.145 28.0002 16.7987 27.6165 18.693 27.1344C19.6406 26.893 20.3972 26.6284 20.944 26.3642C21.2178 26.2312 21.4393 26.0996 21.6148 25.9555C21.7028 25.8828 21.7798 25.8065 21.8446 25.7155C21.9084 25.6253 21.9633 25.5158 21.9758 25.3807C21.9929 25.1885 22.0012 25.0027 22.0012 24.8234C22.0027 23.7889 21.7202 22.9552 21.2591 22.3066ZM6.69613 13.8359L6.65291 13.6059L6.41935 13.5274C6.27063 13.4775 6.15728 13.4265 6.05829 13.362C5.91225 13.265 5.77994 13.1327 5.62518 12.8617C5.47239 12.5921 5.31042 12.1891 5.13333 11.6047C5.05557 11.3494 5.02788 11.1504 5.02788 11.0031C5.02823 10.832 5.06319 10.7318 5.09884 10.6683C5.15269 10.5766 5.2187 10.5374 5.30251 10.5057C5.38097 10.4775 5.46478 10.4729 5.48106 10.4729L5.59785 10.48C5.95587 10.8009 6.02183 11.3472 6.02183 11.3472L7.70484 8.30452C7.70484 8.30452 7.18682 9.52155 7.57515 10.2518C11.3287 8.42615 13.0117 5.99172 13.0117 5.99172C14.1766 7.33037 15.3416 9.03482 15.3416 9.03482L15.7299 11.956L16.3336 10.4825L16.5175 10.4733C16.5334 10.4711 16.6829 10.4825 16.7769 10.5417C16.8258 10.5714 16.8657 10.6056 16.9021 10.6683C16.9381 10.7318 16.9725 10.8317 16.9734 11.0032C16.9734 11.1509 16.9457 11.3494 16.8679 11.6048C16.6324 12.3849 16.4212 12.8385 16.2274 13.0903C16.1303 13.2176 16.0416 13.2971 15.943 13.362C15.844 13.4265 15.7306 13.4775 15.582 13.5274L15.3483 13.6059L15.3051 13.8359C15.0317 15.2754 14.2429 16.0849 13.6604 16.695L13.5509 16.8098V16.9638C13.5509 17.4345 13.5509 17.8164 13.5509 18.147L11.001 19.9314L8.45033 18.1406C8.45033 17.8115 8.45033 17.4314 8.45033 16.9638V16.8098L8.34076 16.695C7.75835 16.0849 6.96953 15.2754 6.69613 13.8359ZM11.4588 20.3393L13.5741 18.8591C13.6131 19.0413 13.7 19.2064 13.8096 19.3455C13.9056 19.4664 14.0201 19.5719 14.143 19.67L13.1009 22.0645L11.4588 20.3393ZM12.8396 22.6653L12.4349 23.5953L12.317 22.1165L12.8396 22.6653ZM8.90322 22.062L7.85926 19.6632C7.97488 19.5698 8.08416 19.4703 8.17628 19.3566C8.29191 19.2139 8.38752 19.0446 8.42846 18.8541L10.543 20.339L8.90322 22.062ZM9.75874 22.0381L9.62451 23.7204L9.16453 22.6628L9.75874 22.0381ZM3.53191 26.3592C2.62706 26.1292 1.91531 25.8764 1.44846 25.65C1.216 25.5376 1.04454 25.4303 0.949802 25.3519C0.909207 25.3187 0.886467 25.2933 0.875067 25.2787C0.861807 25.1204 0.854246 24.9675 0.854246 24.8219C0.855758 23.9205 1.09014 23.2619 1.45224 22.7456C1.99417 21.9739 2.86412 21.5015 3.77309 21.1798C4.22546 21.0193 4.68323 20.8974 5.10343 20.7914C5.13792 20.7825 5.17055 20.7747 5.20463 20.7662L4.70446 22.4592L6.73411 23.4135L5.30519 25.3026L7.32303 27.0068C5.84706 26.853 4.56075 26.6209 3.53191 26.3592ZM8.36059 27.0984L6.13268 25.2163L7.66093 23.1959L5.44023 22.1518L5.90213 20.5871C6.01403 20.5561 6.12244 20.5251 6.22219 20.4919C6.57486 20.3746 6.97192 20.2124 7.33861 20.0088L10.4626 27.189C9.73106 27.1783 9.02913 27.1473 8.36059 27.0984ZM10.1513 24.9307L10.4391 21.3238L11.0007 20.7336L11.6371 21.4019L11.9085 24.8055L11.0026 26.8872L10.1513 24.9307ZM11.5419 27.1907L14.6651 20.0119C14.6758 20.0176 14.6856 20.0241 14.6962 20.0298C15.0406 20.2134 15.4172 20.3646 15.7714 20.4894C15.8757 20.5258 15.9875 20.5603 16.105 20.5942L16.5651 22.1518L14.3444 23.1959L15.8726 25.2163L13.6413 27.1016C12.9741 27.1501 12.2715 27.18 11.5419 27.1907ZM21.1259 25.2777L21.0891 25.3187C21.0262 25.3786 20.8991 25.4688 20.7205 25.5643C20.0906 25.9063 18.8475 26.326 17.179 26.6455C16.4307 26.7892 15.5907 26.9133 14.6807 27.0081L16.7 25.3026L15.2711 23.4134L17.3007 22.4592L16.8043 20.7786C16.9723 20.8217 17.1445 20.8659 17.3234 20.9152C18.2059 21.1548 19.1809 21.4918 19.9067 22.0777C20.2708 22.3707 20.5757 22.7227 20.7945 23.1659C21.0125 23.6091 21.1468 24.1476 21.1468 24.8233C21.1468 24.9677 21.1392 25.12 21.1259 25.2777Z" fill="#3F3A3A"/>
</svg>
