<!-- icon666.com - MILLIONS OF FREE VECTOR ICONS --><svg version="1.1" id="Layer_1" xmlns="http://www.w3.org/2000/svg" xmlns:xlink="http://www.w3.org/1999/xlink" x="0px" y="0px" viewBox="0 0 512 512" style="enable-background:new 0 0 512 512;" xml:space="preserve"><g transform="translate(0 1)"><path style="fill:#54C9FD;" d="M401.067,84.227H85.333c-14.507,0-25.6,11.093-25.6,25.6v158.72l128,97.28h136.533l102.4-97.28 v-158.72C426.667,95.32,415.573,84.227,401.067,84.227"></path><path style="fill:#33A9F8;" d="M426.667,84.227h-25.6c14.507,0,25.6,11.093,25.6,25.6v158.72l-102.4,97.28l128-97.28v-158.72 C452.267,95.32,441.173,84.227,426.667,84.227"></path><path style="fill:#DB4D6C;" d="M256,170.413c7.68-19.627,13.653-34.987,34.133-34.987c17.067,0,17.92,9.387,29.013,21.333 c15.36,17.067,22.187,55.467-5.973,83.627c-15.36,14.507-57.173,84.48-57.173,84.48s-67.413-70.827-81.92-84.48 c-29.013-27.307-22.187-65.707-5.973-83.627c11.947-12.8,25.6-21.333,43.52-21.333C232.107,135.427,248.32,150.787,256,170.413"></path><path style="fill:#D21F47;" d="M340.48,149.933c-11.093-12.8-25.6-21.333-43.52-21.333c-5.12,0-10.24,0.853-14.507,2.56 c0.853,0,2.56,0,3.413,0c17.067,0,17.92,9.387,29.013,21.333c15.36,17.067,22.187,55.467-5.973,83.627 c-11.947,11.947-42.667,61.44-53.76,78.507c13.653-14.507,65.707-68.267,78.507-81.067 C363.52,205.4,356.693,167.853,340.48,149.933"></path><g><path style="fill:#FFDD09;" d="M452.267,181.507v87.04l-128,97.28H187.733l-128-97.28v-87.04l-51.2,47.787V502.36h494.933V229.293 L452.267,181.507z"></path><path style="fill:#FFDD09;" d="M34.133,485.293V246.36l153.6,119.467L34.133,485.293z"></path></g><path style="fill:#FFFFFF;" d="M34.133,248.92l-25.6-19.627V502.36l25.6-19.627V248.92z"></path><g><path style="fill:#FCC309;" d="M8.533,229.293l51.2-42.667v76.8L8.533,229.293z"></path><path style="fill:#FCC309;" d="M503.467,229.293l-51.2,42.667v-76.8L503.467,229.293z"></path></g><path style="fill:#FFDD09;" d="M477.867,485.293V246.36l-153.6,119.467L477.867,485.293z"></path><path style="fill:#FD9808;" d="M477.867,248.92v233.813l25.6,19.627V229.293L477.867,248.92z"></path><path style="fill:#FCC309;" d="M347.307,84.227L271.36,13.4c-8.533-8.533-23.04-8.533-31.573,0l-75.093,70.827H347.307z"></path><path d="M8.533,510.893c-1.707,0-2.56,0-3.413-0.853C1.707,508.333,0,505.773,0,502.36V391.427c0-5.12,3.413-8.533,8.533-8.533 s8.533,3.413,8.533,8.533v93.867L174.08,365.827L17.067,246.36v68.267c0,5.12-3.413,8.533-8.533,8.533S0,319.747,0,314.627v-85.333 c0-3.413,1.707-5.973,5.12-7.68c2.56-1.707,5.973-0.853,8.533,0.853L192.853,359c1.707,1.707,3.413,4.267,3.413,6.827 s-0.853,5.12-3.413,6.827l-179.2,136.533C11.947,510.04,10.24,510.893,8.533,510.893z"></path><path d="M503.467,510.893c-1.707,0-3.413-0.853-5.12-1.707l-179.2-136.533c-2.56-1.707-3.413-4.267-3.413-6.827 s0.853-5.12,3.413-6.827l179.2-136.533c2.56-1.707,5.973-2.56,8.533-0.853c2.56,1.707,5.12,4.267,5.12,7.68V502.36 c0,3.413-1.707,5.973-5.12,7.68C506.027,510.893,505.173,510.893,503.467,510.893z M338.773,365.827l156.16,119.467V246.36 L338.773,365.827z"></path><path d="M326.827,374.36H185.173L51.2,272.813V109.827c0-18.773,15.36-34.133,34.133-34.133h341.333 c18.773,0,34.133,15.36,34.133,34.133v162.987L326.827,374.36z M190.293,357.293h130.56l122.88-93.013V109.827 c0-9.387-7.68-17.067-17.067-17.067H85.333c-9.387,0-17.067,7.68-17.067,17.067V264.28L190.293,357.293z M452.267,268.547 L452.267,268.547L452.267,268.547z"></path><path d="M369.493,92.76H142.507l92.16-85.333c11.947-11.093,31.573-11.093,43.52,0L369.493,92.76z M186.027,75.693h139.947 L266.24,20.227c-5.973-5.12-14.507-5.12-20.48,0L186.027,75.693z"></path><path d="M512,510.893H0v-128c0-5.12,3.413-8.533,8.533-8.533s8.533,3.413,8.533,8.533v110.933h477.867v-261.12L460.8,201.133v71.68 L326.827,374.36H185.173L51.2,272.813v-71.68l-34.133,31.573v81.92c0,5.12-3.413,8.533-8.533,8.533S0,319.747,0,314.627V225.88 l68.267-63.147v102.4l122.027,92.16h130.56l122.88-93.013v-102.4L512,225.027V510.893z"></path><path d="M256,335.107l-5.973-6.827c-0.853-0.853-67.413-70.827-81.92-84.48c-30.72-29.013-27.307-72.533-6.827-95.573 c14.507-16.213,31.573-24.747,49.493-24.747s34.133,9.387,44.373,25.6c11.093-16.213,27.307-25.6,45.227-25.6 s34.987,8.533,49.493,24.747C366.933,167,377.173,210.52,343.04,243.8c-14.507,13.653-81.067,83.627-81.92,84.48L256,335.107z M211.627,141.4c-12.8,0-25.6,5.973-36.693,18.773c-12.8,14.507-20.48,46.933,5.973,71.68c12.8,11.947,58.88,60.587,75.947,78.507 c17.067-17.92,64-66.56,75.947-78.507c25.6-24.747,18.773-57.173,5.973-71.68c-11.093-12.8-23.893-18.773-36.693-18.773 c-18.773,0-31.573,15.36-37.547,29.867L256,191.747l-7.68-20.48C242.347,156.76,229.547,141.4,211.627,141.4z"></path><path d="M17.067,348.76c0,5.12-3.413,8.533-8.533,8.533S0,353.88,0,348.76c0-5.12,3.413-8.533,8.533-8.533 S17.067,343.64,17.067,348.76"></path></g></svg>