<svg width="40" height="24" viewBox="0 0 40 24" fill="none" xmlns="http://www.w3.org/2000/svg">
<path d="M19.5082 6.43237C17.9688 6.43315 16.5818 7.05456 15.5712 8.06284C14.5629 9.07347 13.9415 10.4605 13.9407 11.9999C13.9415 13.5394 14.5629 14.9263 15.5712 15.9369C16.5818 16.9452 17.9688 17.5666 19.5082 17.5674C21.0477 17.5666 22.4346 16.9452 23.4452 15.9369C24.4535 14.9263 25.0749 13.5393 25.0757 11.9999C25.0749 10.4604 24.4535 9.07347 23.4452 8.06284C22.4346 7.05456 21.0477 6.43315 19.5082 6.43237Z" fill="#B7B7B7"/>
<path d="M19.5082 0.475586C13.144 0.475586 7.98383 5.63574 7.98383 12C7.98383 18.3642 13.1439 23.5243 19.5082 23.5243C25.8732 23.5243 31.0326 18.3642 31.0326 12C31.0326 5.63574 25.8732 0.475586 19.5082 0.475586ZM19.5082 19.1214C15.5749 19.1207 12.3876 15.9332 12.3868 12C12.3876 8.06676 15.5749 4.87941 19.5082 4.87863C23.4415 4.87941 26.6288 8.06684 26.6296 12C26.6288 15.9332 23.4414 19.1207 19.5082 19.1214Z" fill="#B7B7B7"/>
<path d="M1.71211 5.48248C0.318358 10.2837 0.0239827 13.3111 0.0239827 13.3111C0.0239827 13.3111 -0.127736 15.1533 0.33203 15.1533C0.791092 15.1533 1.92914 15.1533 1.92914 15.1533V21.8301C1.92914 22.5501 2.51414 23.1351 3.23414 23.1351H4.24554C4.96554 23.1351 5.55054 22.5501 5.55054 21.8301V2.87092C5.55062 1.02873 3.09383 0.723028 1.71211 5.48248Z" fill="#B7B7B7"/>
<path d="M38.8991 1.84814H38.896C38.4582 1.84814 38.4142 2.20322 38.4142 2.64103V7.69494H37.1448V2.64103C37.1448 2.20322 36.7898 1.84814 36.3519 1.84814C35.9141 1.84814 35.5591 2.20322 35.5591 2.64103V7.69494H34.0689V2.64103C34.0689 2.20322 34.0249 1.84814 33.5871 1.84814H33.5841C32.9764 1.84814 32.4832 2.34135 32.4832 2.94908V7.69494C32.4832 9.73439 33.0151 10.2822 33.5515 10.8186C34.1342 11.4013 34.4309 11.5956 34.4309 12.2754C34.4309 12.9553 34.4309 15.1532 34.4309 15.1532V21.8301C34.4309 22.5501 35.0159 23.1351 35.7359 23.1351H36.7473C37.4673 23.1351 38.0523 22.5501 38.0523 21.8301V12.2754C38.0523 11.5956 38.3489 11.4013 38.9316 10.8186C39.468 10.2822 39.9999 9.73439 39.9999 7.69494V2.94908C40 2.34135 39.5068 1.84814 38.8991 1.84814Z" fill="#B7B7B7"/>
</svg>
