<svg width="40" height="36" viewBox="0 0 40 36" fill="none" xmlns="http://www.w3.org/2000/svg">
<path d="M33.8749 11.1712C33.588 10.9925 33.2105 11.0801 33.0315 11.367C32.8527 11.6541 32.9403 12.0316 33.2273 12.2105C36.7015 14.3755 38.7755 18.1048 38.7755 22.1866C38.7755 28.6673 33.4918 33.9397 26.9973 33.9397C20.5027 33.9397 15.2191 28.6673 15.2191 22.1866C15.2191 19.631 16.0597 17.1373 17.5957 15.1069C18.1878 15.4908 18.7291 15.9463 19.2069 16.4614C17.9859 18.1147 17.3175 20.1274 17.3175 22.1866C17.3175 27.5139 21.6598 31.848 26.9972 31.848C32.3345 31.848 36.6767 27.5139 36.6767 22.1866C36.6767 16.8594 32.3345 12.5253 26.9972 12.5253C25.5016 12.5253 24.0234 12.8746 22.6907 13.5373C22.1954 12.9866 21.6545 12.4816 21.0767 12.0251C22.8697 10.9816 24.8991 10.4337 26.997 10.4337C28.5066 10.4337 29.9762 10.7144 31.3652 11.2683C31.6792 11.3935 32.0354 11.2405 32.1606 10.9263C32.2859 10.6122 32.1327 10.2561 31.8187 10.1308C30.2848 9.51921 28.6627 9.20913 26.997 9.20913C24.4963 9.20913 22.0836 9.91569 19.9919 11.2541C19.1083 10.6912 18.1569 10.2346 17.1589 9.89632L20.1673 6.26866C20.5312 5.82983 20.5642 5.21562 20.2496 4.74038L18.0466 1.4121C17.8073 1.05108 17.4055 0.835693 16.9721 0.835693H9.03305C8.59906 0.835693 8.19719 1.0514 7.95836 1.41249L5.75555 4.74054C5.44102 5.21569 5.47422 5.82983 5.83805 6.26874L8.84156 9.89062C3.70625 11.6263 0 16.4826 0 22.1866C0 29.3424 5.83297 35.1641 13.0027 35.1641C15.5767 35.1641 17.9779 34.4132 19.9993 33.1201C22.0209 34.4135 24.4229 35.1641 26.9973 35.1641C34.167 35.1641 40.0001 29.3424 40.0001 22.1866C40 17.6791 37.7102 13.5612 33.8749 11.1712ZM19.9993 26.9166C19.0799 25.5666 18.5421 23.9381 18.5421 22.1866C18.5421 20.4993 19.0562 18.8473 20.0009 17.4572C20.9202 18.807 21.4578 20.4353 21.4578 22.1866C21.4577 23.9384 20.9189 25.5666 19.9993 26.9166ZM15.8698 9.53272C14.9398 9.32116 13.9794 9.20921 13.0027 9.20921C12.7387 9.20921 12.4768 9.21804 12.2166 9.23358L11.1841 6.10632H14.8213L14.4963 7.09046C14.3903 7.41155 14.5647 7.7578 14.8857 7.86382C14.9495 7.88483 15.0141 7.89483 15.0778 7.89483C15.3348 7.89483 15.5741 7.73171 15.6591 7.47444L16.1108 6.1064H18.7113L15.8698 9.53272ZM17.3324 2.5514L18.8748 4.88179H16.0137L15.9016 4.71257L17.3324 2.5514ZM16.189 2.0603L15.1675 3.60335L14.146 2.0603H16.189ZM14.5453 4.88171H11.4602L13.0027 2.5514L14.5453 4.88171ZM11.8594 2.0603L10.8379 3.60343L9.81633 2.0603H11.8594ZM8.67305 2.55155L10.1036 4.71265L9.99164 4.88179H7.13047L8.67305 2.55155ZM7.29406 6.10624H9.89453L10.9714 9.36788C10.6884 9.41241 10.4085 9.46608 10.1319 9.52851L7.29406 6.10624ZM13.0027 33.9396C6.50813 33.9396 1.22445 28.6672 1.22445 22.1866C1.22445 15.706 6.50813 10.4336 13.0027 10.4336C17.5873 10.4336 21.7891 13.1197 23.7073 17.2769C23.8489 17.584 24.2127 17.718 24.5198 17.5764C24.8268 17.4348 24.9609 17.071 24.8191 16.764C24.4488 15.9615 24.0001 15.2099 23.4868 14.5139C24.5838 14.013 25.7839 13.7498 26.9973 13.7498C31.6594 13.7498 35.4523 17.5346 35.4523 22.1866C35.4523 26.8387 31.6594 30.6234 26.9972 30.6234C25.7437 30.6234 24.5531 30.3494 23.4821 29.859C25.0672 27.7083 26.0055 25.0551 26.0055 22.1867C26.0055 21.0453 25.8569 19.9129 25.5639 18.821C25.4762 18.4944 25.1405 18.3008 24.8138 18.3883C24.4873 18.476 24.2936 18.8118 24.3812 19.1383C24.6465 20.1268 24.7809 21.1524 24.7809 22.1867C24.7809 24.8419 23.893 27.2935 22.3991 29.2634C21.8091 28.8805 21.27 28.4261 20.7937 27.9128C21.9799 26.3093 22.6823 24.3284 22.6823 22.1867C22.6823 16.8594 18.3401 12.5254 13.0027 12.5254C7.66531 12.5254 3.32305 16.8594 3.32305 22.1867C3.32305 24.9155 4.49172 27.5317 6.52945 29.3642C6.78086 29.5902 7.16797 29.5698 7.39414 29.3184C7.62016 29.067 7.59969 28.6799 7.34828 28.4537C5.56844 26.8531 4.54766 24.5688 4.54766 22.1867C4.54766 17.5346 8.34063 13.7499 13.0028 13.7499C14.2543 13.7499 15.4427 14.0233 16.5123 14.5124C14.8842 16.7283 13.9946 19.4246 13.9946 22.1867C13.9946 25.0548 14.9327 27.7078 16.5175 29.8581C15.4465 30.3488 14.2563 30.6235 13.0027 30.6235C11.7155 30.6235 10.4791 30.3412 9.32789 29.7842C9.02336 29.6369 8.65734 29.7643 8.51008 30.0688C8.36281 30.3731 8.49023 30.7393 8.79453 30.8866C10.1134 31.5245 11.5293 31.848 13.0026 31.848C14.5502 31.848 16.014 31.4832 17.3127 30.8358C17.8035 31.3826 18.3395 31.8882 18.9156 32.3456C17.1766 33.3574 15.157 33.9396 13.0027 33.9396Z" fill="#B7B7B7"/>
</svg>
